<?xml version="1.0" encoding="iso-8859-1"?>
<!-- Generator: Adobe Illustrator 19.0.0, SVG Export Plug-In . SVG Version: 6.00 Build 0)  -->
<svg version="1.1" id="Layer_1" xmlns="http://www.w3.org/2000/svg" xmlns:xlink="http://www.w3.org/1999/xlink" x="0px" y="0px"
	 viewBox="0 0 512 512" style="enable-background:new 0 0 512 512;fill:#fff;" xml:space="preserve">
<g>
	<g>
		<path d="M423.423,195.58L299.852,72.009c3.518-6.787,5.519-14.481,5.519-22.638C305.371,22.147,283.223,0,256,0
			c-27.224,0-49.371,22.147-49.371,49.371c0,8.158,2.001,15.852,5.519,22.639L88.578,195.58H11.864V512h488.272V195.58H423.423z
			 M256,30c10.681,0,19.37,8.689,19.37,19.371c0,10.681-8.689,19.37-19.37,19.37c-10.682,0-19.371-8.689-19.371-19.37
			C236.629,38.689,245.319,30,256,30z M233.362,93.222c6.787,3.518,14.481,5.519,22.639,5.519c8.157,0,15.852-2.001,22.638-5.519
			L380.997,195.58H131.004L233.362,93.222z M470.136,482H41.864V225.58h428.272V482z"/>
	</g>
</g>
<g>
	<g>
		<polygon points="126.826,266.718 126.826,296.735 99.56,296.735 99.56,266.718 77.219,266.718 77.219,348.062 99.56,348.062 
			99.56,316.212 126.826,316.212 126.826,348.062 149.167,348.062 149.167,266.718 		"/>
	</g>
</g>
<g>
	<g>
		<path d="M234.061,292.496c-1.833-4.964-4.45-9.395-7.848-13.29c-3.4-3.895-7.486-7.026-12.258-9.394
			c-4.775-2.367-10.064-3.552-15.868-3.552c-5.728,0-10.981,1.128-15.753,3.379c-4.775,2.254-8.919,5.27-12.431,9.051
			c-3.514,3.78-6.244,8.154-8.192,13.118c-1.948,4.966-2.922,10.122-2.922,15.467c0,5.27,0.935,10.388,2.807,15.352
			c1.873,4.966,4.508,9.377,7.907,13.233c3.398,3.858,7.484,6.971,12.259,9.337c4.772,2.369,10.062,3.552,15.868,3.552
			c5.728,0,10.998-1.146,15.81-3.437c4.812-2.291,8.936-5.327,12.373-9.108c3.437-3.78,6.129-8.134,8.077-13.061
			c1.947-4.926,2.921-10.062,2.921-15.41C236.811,302.54,235.895,297.462,234.061,292.496z M213.153,315.181
			c-0.65,2.598-1.623,4.909-2.921,6.932c-1.3,2.025-2.979,3.666-5.042,4.926c-2.062,1.26-4.507,1.89-7.332,1.89
			c-2.75,0-5.156-0.61-7.218-1.833c-2.063-1.221-3.781-2.825-5.156-4.812c-1.375-1.985-2.388-4.257-3.036-6.817
			c-0.65-2.558-0.974-5.213-0.974-7.962c0.002-2.673,0.326-5.289,0.976-7.848c0.648-2.558,1.641-4.85,2.978-6.874
			c1.336-2.023,3.016-3.646,5.041-4.869c2.023-1.221,4.448-1.833,7.275-1.833c2.75,0,5.156,0.592,7.218,1.776
			c2.062,1.185,3.761,2.75,5.098,4.697c1.336,1.948,2.349,4.202,3.036,6.76c0.687,2.56,1.031,5.213,1.031,7.962
			C214.127,309.951,213.801,312.585,213.153,315.181z"/>
	</g>
</g>
<g>
	<g>
		<polygon points="238.873,266.718 238.873,286.195 262.36,286.195 262.36,348.062 284.7,348.062 284.7,286.195 308.072,286.195 
			308.072,266.718 		"/>
	</g>
</g>
<g>
	<g>
		<polygon points="338.546,328.585 338.546,315.753 368.104,315.753 368.104,297.652 338.546,297.652 338.546,286.195 
			373.146,286.195 373.146,266.718 316.206,266.718 316.206,348.062 374.177,348.062 374.177,328.585 		"/>
	</g>
</g>
<g>
	<g>
		<polygon points="406.942,328.585 406.942,266.718 384.601,266.718 384.601,348.062 443.833,348.062 443.833,328.585 		"/>
	</g>
</g>
<g>
	<g>
		<polygon points="290.457,407.466 264.134,407.466 256,382.432 247.866,407.466 221.544,407.466 242.839,422.938 234.705,447.972 
			256,432.5 277.295,447.972 269.161,422.938 		"/>
	</g>
</g>
<g>
	<g>
		<polygon points="370.568,407.466 344.246,407.466 336.112,382.432 327.978,407.466 301.656,407.466 322.951,422.938 
			314.817,447.972 336.112,432.5 357.407,447.972 349.273,422.938 		"/>
	</g>
</g>
<g>
	<g>
		<polygon points="450.938,407.466 424.615,407.466 416.481,382.432 408.347,407.466 382.025,407.466 403.32,422.938 
			395.186,447.972 416.481,432.5 437.777,447.972 429.643,422.938 		"/>
	</g>
</g>
<g>
	<g>
		<polygon points="130.147,407.466 103.825,407.466 95.691,382.432 87.557,407.466 61.235,407.466 82.53,422.938 74.396,447.972 
			95.691,432.5 116.986,447.972 108.852,422.938 		"/>
	</g>
</g>
<g>
	<g>
		<polygon points="210.517,407.466 184.195,407.466 176.061,382.432 167.927,407.466 141.604,407.466 162.899,422.938 
			154.765,447.972 176.061,432.5 197.356,447.972 189.222,422.938 		"/>
	</g>
</g>
<g>
</g>
<g>
</g>
<g>
</g>
<g>
</g>
<g>
</g>
<g>
</g>
<g>
</g>
<g>
</g>
<g>
</g>
<g>
</g>
<g>
</g>
<g>
</g>
<g>
</g>
<g>
</g>
<g>
</g>
</svg>
