<svg id="Capa_1" enable-background="new 0 0 512 512" height="512" viewBox="0 0 512 512" width="512" xmlns="http://www.w3.org/2000/svg"><g><g><g><path d="m280.254 209.66v60.84h-228.505v-60.851c0-18.238 11.922-34.35 29.378-39.671l42.39-12.927c3.914-1.195 7.289-3.47 9.796-6.453 3.078-3.65 4.888-8.347 4.888-13.372v-24.458h55.042v24.309c0 5.036 1.82 9.754 4.919 13.403 2.507 2.962 5.861 5.226 9.764 6.421l42.94 13.086c17.456 5.323 29.388 21.424 29.388 39.673z" fill="#fd8087"/></g><path d="m165.283 169.798-20.002 22.595c-2.532 2.86-6.89 3.162-9.792.679l-34.187-29.251 22.216-6.77c3.914-1.195 7.289-3.47 9.796-6.453z" fill="#fe646f"/><path d="m230.174 163.684-34.568 29.46c-2.879 2.453-7.186 2.176-9.726-.626l-20.597-22.719 32.879-19.317c2.507 2.962 5.861 5.226 9.764 6.421z" fill="#fe646f"/><g><path d="m198.16 150.48-32.88 19.32-31.97-19.2c3.08-3.65 4.89-8.35 4.89-13.37v-24.46h55.04v24.31c0 5.03 1.82 9.75 4.92 13.4z" fill="#ffcebf"/></g><g><path d="m138.2 112.77v23.599c8.454 9.57 20.809 15.612 34.583 15.612 8.185 0 15.867-2.141 22.532-5.879-1.333-2.753-2.075-5.823-2.075-9.022v-24.31z" fill="#ffb09e"/><path d="m165.283 136.981c-25.482 0-46.139-20.657-46.139-46.139v-56.294c0-14.938 12.11-27.048 27.048-27.048h38.181c14.938 0 27.048 12.11 27.048 27.048v56.294c0 25.482-20.657 46.139-46.138 46.139z" fill="#ffcebf"/><path d="m184.373 7.5h-38.181c-14.938 0-27.048 12.11-27.048 27.048v34.415l39.099-12.881c14.418-4.75 30.223-2.57 42.816 5.906l10.363 6.975v-34.415c0-14.938-12.11-27.048-27.049-27.048z" fill="#c59191"/></g><g><path d="m494.5 315.5h-477c-5.523 0-10-4.477-10-10v-25c0-5.523 4.477-10 10-10h477c5.523 0 10 4.477 10 10v25c0 5.523-4.477 10-10 10z" fill="#7a6d79"/></g><path d="m494.5 270.5h-30c5.523 0 10 4.477 10 10v25c0 5.523-4.477 10-10 10h30c5.523 0 10-4.477 10-10v-25c0-5.523-4.477-10-10-10z" fill="#685e68"/><g><path d="m45.002 502v-186.5h422v186.5c0 5.523-4.477 10-10 10h-402c-5.523 0-10-4.477-10-10z" fill="#918291"/></g><path d="m437.002 315.5v186.5c0 5.523-4.477 10-10 10h30c5.523 0 10-4.477 10-10v-186.5z" fill="#7a6d79"/><path d="m250.866 169.989-17.094-5.209v63.735c0 9.834 7.972 17.807 17.807 17.807h28.675v-36.662c0-18.249-11.932-34.35-29.388-39.671z" fill="#fe646f"/><path d="m404.539 234.843h-139.874c-8.284 0-15-6.716-15-15v-92.687c0-8.284 6.716-15 15-15h139.874c8.284 0 15 6.716 15 15v92.687c0 8.285-6.716 15-15 15z" fill="#e5e1e5"/><path d="m404.539 112.157h-30c8.284 0 15 6.716 15 15v92.687c0 8.284-6.716 15-15 15h30c8.284 0 15-6.716 15-15v-92.687c0-8.285-6.716-15-15-15z" fill="#d7d0d6"/><path d="m349.602 270.5h-30v-60c0-8.284 6.716-15 15-15 8.284 0 15 6.716 15 15z" fill="#d7d0d6"/><g><circle cx="256.002" cy="434.886" fill="#7acaa6" r="69.614"/></g></g><path d="m256.002 415.721c-4.143 0-7.5 3.357-7.5 7.5v53.331c0 4.143 3.357 7.5 7.5 7.5s7.5-3.357 7.5-7.5v-53.331c0-4.143-3.357-7.5-7.5-7.5zm0-30.001c-4.142 0-7.5 3.358-7.5 7.5s3.358 7.5 7.5 7.5 7.5-3.358 7.5-7.5-3.358-7.5-7.5-7.5zm0-27.949c-42.521 0-77.114 34.594-77.114 77.114s34.593 77.115 77.114 77.115 77.114-34.594 77.114-77.114-34.594-77.115-77.114-77.115zm0 139.229c-34.25 0-62.114-27.864-62.114-62.114s27.864-62.114 62.114-62.114 62.114 27.864 62.114 62.114-27.864 62.114-62.114 62.114zm238.498-234h-137.398v-20.66h47.438c12.406 0 22.5-10.093 22.5-22.5v-92.68c0-12.407-10.094-22.5-22.5-22.5h-139.87c-12.406 0-22.5 10.093-22.5 22.5v32.334l-32.057-9.769c-2.434-.74-4.589-2.157-6.237-4.1-2.022-2.381-3.136-5.415-3.136-8.544v-6.039c11.138-9.836 18.182-24.206 18.182-40.198v-56.296c0-19.049-15.498-34.548-34.549-34.548h-38.181c-19.05 0-34.549 15.499-34.549 34.548v56.294c0 16.408 7.413 31.11 19.057 40.957v5.431c0 3.117-1.109 6.147-3.137 8.55-1.621 1.933-3.774 3.348-6.232 4.096l-42.387 12.93c-20.752 6.323-34.694 25.148-34.694 46.844v30.85c0 4.142 3.357 7.5 7.5 7.5s7.5-3.358 7.5-7.5v-30.85c0-15.051 9.671-28.11 24.068-32.496l16.24-4.954 31.053 26.57c2.712 2.32 6.066 3.458 9.409 3.458 4.023 0 8.03-1.648 10.875-4.863l6.887-7.779v73.414h-48.474v-12.991c0-4.142-3.357-7.5-7.5-7.5s-7.5 3.358-7.5 7.5v12.991h-76.808c-9.649 0-17.5 7.851-17.5 17.5v25c0 9.649 7.851 17.5 17.5 17.5h20.002v181.5c0 4.143 3.357 7.5 7.5 7.5s7.5-3.357 7.5-7.5v-181.5h441.998c9.649 0 17.5-7.851 17.5-17.5v-25c0-9.649-7.851-17.5-17.5-17.5zm-237.33-93.388c0-.022 0-.045 0-.067v-42.385c0-4.136 3.364-7.5 7.5-7.5h139.87c4.136 0 7.5 3.364 7.5 7.5v92.68c0 4.136-3.364 7.5-7.5 7.5h-47.438v-16.84c0-12.407-10.094-22.5-22.5-22.5s-22.5 10.093-22.5 22.5v16.84h-47.432c-4.136 0-7.5-3.364-7.5-7.5zm84.932 65.266v28.122h-15v-52.5c0-4.136 3.364-7.5 7.5-7.5s7.5 3.364 7.5 7.5v24.301c0 .013-.002.025-.002.039s.002.025.002.038zm-30 7.462v20.66h-24.352v-20.66zm-69.932-67.165v44.665c0 12.407 10.094 22.5 22.5 22.5h8.08v20.66h-36.494v-12.991c0-4.142-3.357-7.5-7.5-7.5s-7.5 3.358-7.5 7.5v12.991h-48.474v-73.763l7.541 8.318c2.873 3.169 6.792 4.787 10.735 4.787 3.324 0 6.667-1.15 9.413-3.49l31.447-26.801zm-36.427-11.101 9.141 2.786-23.774 20.261-14.077-15.528 20.149-11.838c2.574 1.905 5.459 3.375 8.561 4.319zm-79.099-129.526c0-10.779 8.77-19.548 19.549-19.548h38.181c10.779 0 19.549 8.77 19.549 19.548v20.382c-14.377-9.123-31.784-11.321-48.026-5.97l-29.252 9.637v-24.049zm0 56.294v-16.452l33.945-11.183c12.309-4.055 25.532-2.23 36.282 5.005l7.051 4.745v17.886c0 21.306-17.334 38.639-38.64 38.639s-38.638-17.334-38.638-38.64zm13.346 96.211-23.423-20.041 9.136-2.787c3.11-.947 5.993-2.415 8.557-4.31l19.427 11.668zm3.546-39.064c.965-2.338 1.615-4.797 1.927-7.319 6.136 2.449 12.82 3.811 19.819 3.811 7.323 0 14.305-1.479 20.67-4.147.301 2.581.957 5.095 1.94 7.482l-22.568 13.259zm353.464 157.511c0 1.379-1.121 2.5-2.5 2.5h-477c-1.379 0-2.5-1.121-2.5-2.5v-25c0-1.379 1.121-2.5 2.5-2.5h477c1.379 0 2.5 1.121 2.5 2.5zm-29.998 36.266c-4.143 0-7.5 3.357-7.5 7.5v155.234c0 4.143 3.357 7.5 7.5 7.5s7.5-3.357 7.5-7.5v-155.234c0-4.143-3.357-7.5-7.5-7.5z"/></g></svg>